{
    "asset" : {
        "generator" : "Khronos glTF Blender I/O v3.3.27",
        "version" : "2.0"
    },
    "extensionsUsed" : [
        "KHR_materials_specular",
        "KHR_materials_ior"
    ],
    "scene" : 0,
    "scenes" : [
        {
            "name" : "Scene",
            "nodes" : [
                0,
                1
            ]
        }
    ],
    "nodes" : [
        {
            "mesh" : 0,
            "name" : "model.001",
            "rotation" : [
                0.7239705920219421,
                0,
                0,
                0.6898308992385864
            ],
            "scale" : [
                436.4381408691406,
                436.4382019042969,
                436.4382019042969
            ]
        },
        {
            "mesh" : 1,
            "name" : "57mm-tall-queen",
            "rotation" : [
                0,
                -0.19440054893493652,
                0,
                0.980922281742096
            ],
            "scale" : [
                0.13262507319450378,
                0.02761249616742134,
                0.13262507319450378
            ],
            "translation" : [
                0,
                -2.5356554985046387,
                -0.22798985242843628
            ]
        }
    ],
    "materials" : [
        {
            "doubleSided" : true,
            "extensions" : {
                "KHR_materials_specular" : {
                    "specularColorFactor" : [
                        0,
                        0,
                        0
                    ]
                },
                "KHR_materials_ior" : {
                    "ior" : 1.4500000476837158
                }
            },
            "name" : "material_0",
            "pbrMetallicRoughness" : {
                "baseColorTexture" : {
                    "index" : 0
                },
                "metallicFactor" : 0
            }
        }
    ],
    "meshes" : [
        {
            "name" : "model.001",
            "primitives" : [
                {
                    "attributes" : {
                        "POSITION" : 0,
                        "NORMAL" : 1,
                        "TEXCOORD_0" : 2
                    },
                    "indices" : 3,
                    "material" : 0
                }
            ]
        },
        {
            "name" : "57mm-tall-queen",
            "primitives" : [
                {
                    "attributes" : {
                        "POSITION" : 4,
                        "NORMAL" : 5
                    },
                    "indices" : 6
                }
            ]
        }
    ],
    "textures" : [
        {
            "sampler" : 0,
            "source" : 0
        }
    ],
    "images" : [
        {
            "bufferView" : 4,
            "mimeType" : "image/png",
            "name" : "model"
        }
    ],
    "accessors" : [
        {
            "bufferView" : 0,
            "componentType" : 5126,
            "count" : 30450,
            "max" : [
                0.21852149069309235,
                0.14323019981384277,
                0.13501979410648346
            ],
            "min" : [
                -0.21901749074459076,
                -0.11121401190757751,
                -0.25549909472465515
            ],
            "type" : "VEC3"
        },
        {
            "bufferView" : 1,
            "componentType" : 5126,
            "count" : 30450,
            "type" : "VEC3"
        },
        {
            "bufferView" : 2,
            "componentType" : 5126,
            "count" : 30450,
            "type" : "VEC2"
        },
        {
            "bufferView" : 3,
            "componentType" : 5123,
            "count" : 157389,
            "type" : "SCALAR"
        },
        {
            "bufferView" : 5,
            "componentType" : 5126,
            "count" : 16262,
            "max" : [
                15.5,
                57,
                15.5
            ],
            "min" : [
                -15.5,
                0,
                -15.5
            ],
            "type" : "VEC3"
        },
        {
            "bufferView" : 6,
            "componentType" : 5126,
            "count" : 16262,
            "type" : "VEC3"
        },
        {
            "bufferView" : 7,
            "componentType" : 5123,
            "count" : 16626,
            "type" : "SCALAR"
        }
    ],
    "bufferViews" : [
        {
            "buffer" : 0,
            "byteLength" : 365400,
            "byteOffset" : 0,
            "target" : 34962
        },
        {
            "buffer" : 0,
            "byteLength" : 365400,
            "byteOffset" : 365400,
            "target" : 34962
        },
        {
            "buffer" : 0,
            "byteLength" : 243600,
            "byteOffset" : 730800,
            "target" : 34962
        },
        {
            "buffer" : 0,
            "byteLength" : 314778,
            "byteOffset" : 974400,
            "target" : 34963
        },
        {
            "buffer" : 0,
            "byteLength" : 790452,
            "byteOffset" : 1289180
        },
        {
            "buffer" : 0,
            "byteLength" : 195144,
            "byteOffset" : 2079632,
            "target" : 34962
        },
        {
            "buffer" : 0,
            "byteLength" : 195144,
            "byteOffset" : 2274776,
            "target" : 34962
        },
        {
            "buffer" : 0,
            "byteLength" : 33252,
            "byteOffset" : 2469920,
            "target" : 34963
        }
    ],
    "samplers" : [
        {
            "magFilter" : 9729,
            "minFilter" : 9987
        }
    ],
    "buffers" : [
        {
            "byteLength" : 2503172,
            "uri" : "data:application/octet-stream;base64,"
        }
    ]
}
